<svg xmlns="http://www.w3.org/2000/svg" width="552" height="532" viewBox="0 0 552 532" version="1.1"><path d="M 38.500 393.661 C 36.300 393.840, 31.688 394.250, 28.250 394.573 L 22 395.159 22 443.973 C 22 487.562, 22.169 492.851, 23.582 493.393 C 24.452 493.727, 32.214 493.992, 40.832 493.983 C 63.535 493.957, 72.289 491.776, 80.335 484.140 C 86.060 478.706, 88.282 473.676, 88.352 465.994 C 88.458 454.518, 82.664 446.561, 70.839 441.937 L 66.841 440.374 72.642 436.937 C 80.753 432.131, 84.530 425.922, 84.419 417.578 C 84.324 410.444, 82.576 406.591, 77.352 402.004 C 71.938 397.251, 66.546 395.198, 56.425 394.039 C 47.651 393.034, 46.517 393.010, 38.500 393.661 M 127.500 393.659 C 125.300 393.836, 120.237 394.249, 116.250 394.576 L 109 395.171 109 444.085 L 109 493 115 493 L 121 493 121 471.500 L 121 450 130.250 450.006 C 141.105 450.012, 145.799 451.119, 150.013 454.664 C 154.355 458.318, 156.334 462.736, 160.021 477.008 C 161.796 483.879, 163.659 490.288, 164.160 491.250 C 164.875 492.625, 166.374 493, 171.152 493 C 176.473 493, 177.169 492.781, 176.720 491.250 C 176.437 490.288, 174.567 483.425, 172.563 476 C 170.559 468.575, 168.012 460.616, 166.902 458.314 C 165.014 454.398, 159.037 448.056, 155.892 446.631 C 154.977 446.216, 154.877 445.817, 155.600 445.467 C 163.036 441.861, 167.814 437.940, 170.744 433.038 C 173.605 428.250, 173.997 426.733, 173.978 420.544 C 173.964 415.906, 173.334 412.131, 172.135 409.491 C 169.978 404.742, 164.216 399.425, 158.476 396.886 C 154.544 395.147, 139.305 392.837, 134 393.176 C 132.625 393.264, 129.700 393.481, 127.500 393.659 M 225.912 394.445 C 202.939 400.782, 187.371 424.083, 189.487 448.962 C 191.855 476.798, 211.629 495, 239.500 495 C 269.879 495, 291 473.674, 291 443 C 291 418.862, 278.174 401.088, 256.068 394.595 C 249.521 392.672, 232.643 392.588, 225.912 394.445 M 496.500 393.659 C 494.300 393.836, 489.238 394.249, 485.250 394.576 L 478 395.171 478 444.085 L 478 493 484 493 L 490 493 490 471.500 L 490 450 499.250 450.006 C 510.105 450.012, 514.799 451.119, 519.013 454.664 C 523.355 458.318, 525.334 462.736, 529.021 477.008 C 530.796 483.879, 532.659 490.288, 533.160 491.250 C 533.875 492.625, 535.374 493, 540.152 493 C 545.473 493, 546.169 492.781, 545.720 491.250 C 545.437 490.288, 543.567 483.425, 541.563 476 C 539.559 468.575, 537.012 460.616, 535.902 458.314 C 534.014 454.398, 528.037 448.056, 524.892 446.631 C 523.977 446.216, 523.877 445.817, 524.600 445.467 C 532.036 441.861, 536.814 437.940, 539.744 433.038 C 542.605 428.250, 542.997 426.733, 542.978 420.544 C 542.964 415.906, 542.334 412.131, 541.135 409.491 C 538.978 404.742, 533.216 399.425, 527.476 396.886 C 523.544 395.147, 508.305 392.837, 503 393.176 C 501.625 393.264, 498.700 393.481, 496.500 393.659 M 310 443.500 L 310 493 316 493 L 322 493 322 474.219 L 322 455.437 327.841 449.657 L 333.683 443.876 352.076 468.438 L 370.468 493 377.857 493 C 383.611 493, 385.033 492.723, 384.289 491.750 C 363.523 464.606, 342.940 436.692, 343.182 436.003 C 343.357 435.505, 351.825 426.248, 362 415.433 C 372.175 404.617, 380.650 395.370, 380.833 394.884 C 381.017 394.398, 377.867 394.006, 373.833 394.013 L 366.500 394.025 347.500 415.229 C 337.050 426.891, 327.050 438.023, 325.277 439.966 L 322.054 443.500 322.027 418.750 L 322 394 316 394 L 310 394 310 443.500 M 398 443.500 L 398 493 428 493 L 458 493 458 488.500 L 458 484 434 484 L 410 484 410 465.500 L 410 447 431.500 447 L 453 447 453 442 L 453 437 431.500 437 L 410 437 410 420.500 L 410 404 433 404 L 456 404 456 399 L 456 394 427 394 L 398 394 398 443.500 M 41 402.999 L 34.500 403.500 34.226 420.250 L 33.952 437 42.427 437 C 57.327 437, 64.893 434.250, 69.726 427.078 C 73.369 421.673, 72.508 413.320, 67.790 408.283 C 63.841 404.068, 53.526 402.033, 41 402.999 M 233.500 402.525 C 232.950 402.727, 230.673 403.361, 228.441 403.933 C 207.354 409.341, 195.903 440.517, 206.481 463.718 C 214.848 482.069, 235.133 490.108, 254.702 482.828 C 268.515 477.689, 278 461.881, 278 444 C 278 419.669, 261.805 401.771, 240.068 402.079 C 237.006 402.122, 234.050 402.323, 233.500 402.525 M 122.250 403.613 C 121.315 404.027, 121 408.832, 121 422.684 L 121 441.201 133.750 440.820 C 148.603 440.377, 153.919 438.595, 158.569 432.499 C 160.835 429.528, 161.492 427.501, 161.770 422.630 C 162.217 414.811, 160.050 410.598, 153.475 406.500 C 148.860 403.624, 148.140 403.491, 136.080 403.280 C 129.161 403.158, 122.938 403.308, 122.250 403.613 M 491.250 403.613 C 490.315 404.027, 490 408.832, 490 422.684 L 490 441.201 502.750 440.820 C 517.603 440.377, 522.919 438.595, 527.569 432.499 C 529.835 429.528, 530.492 427.501, 530.770 422.630 C 531.217 414.811, 529.050 410.598, 522.475 406.500 C 517.860 403.624, 517.140 403.491, 505.080 403.280 C 498.161 403.158, 491.938 403.308, 491.250 403.613 M 34.228 465.250 L 34.500 484.500 44.444 484.789 C 60.037 485.241, 69.827 481.468, 73.737 473.500 C 78.823 463.135, 72.941 451.139, 61.041 447.605 C 57.532 446.563, 51.836 446, 44.797 446 L 33.957 446 34.228 465.250" stroke="none" fill="#047c7c" fill-rule="evenodd"/><path d="M 87.500 93.165 C 40.750 144.319, 1.883 187.033, 1.128 188.086 C -0.217 189.963, 0.581 190, 42.276 190 L 84.797 190 138.585 126.750 C 168.168 91.963, 193.809 61.871, 195.565 59.881 L 198.759 56.261 218.629 79.690 C 229.558 92.576, 238.500 103.473, 238.500 103.906 C 238.500 104.339, 221.963 122.770, 201.750 144.863 C 181.537 166.956, 165 185.475, 165 186.016 C 165 186.644, 178.513 187, 202.339 187 L 239.678 187 257.051 166.554 C 269.886 151.450, 274.745 146.373, 275.648 147.123 C 276.321 147.681, 284.852 157.557, 294.606 169.069 L 312.340 190 354.670 190 C 377.952 190, 397 189.759, 397 189.465 C 397 189.171, 379.596 168.808, 358.325 144.215 C 337.054 119.622, 319.032 98.765, 318.276 97.868 C 317.063 96.425, 319.143 93.602, 336.193 73.558 L 355.483 50.881 358.168 54.190 C 359.645 56.011, 385.543 86.525, 415.720 122 L 470.588 186.500 508.381 186.762 C 538.454 186.971, 546.090 186.766, 545.759 185.762 C 545.531 185.068, 510.279 143.921, 467.422 94.325 L 389.500 4.149 360 4.082 L 330.500 4.015 306.440 30.351 L 282.381 56.688 257.940 28.358 L 233.500 0.028 203 0.093 L 172.500 0.158 87.500 93.165 M 97.368 94.191 C 53.991 141.596, 18.350 180.746, 18.167 181.191 C 17.983 181.636, 32.158 181.987, 49.667 181.971 L 81.500 181.942 139.514 113.721 C 171.421 76.199, 198.058 45.500, 198.707 45.500 C 199.356 45.500, 209.767 57.126, 221.842 71.336 C 233.917 85.546, 244.090 97.246, 244.448 97.336 C 244.807 97.426, 252.265 89.656, 261.022 80.069 C 274.470 65.348, 276.755 62.398, 275.722 61.092 C 275.050 60.241, 264.458 47.948, 252.185 33.773 L 229.870 8 203.053 8 L 176.236 8 97.368 94.191 M 295.827 121.009 C 287.397 130.913, 280.506 139.329, 280.514 139.710 C 280.521 140.091, 288.396 149.730, 298.014 161.130 L 315.500 181.857 347.878 181.929 L 380.256 182 377.878 179.011 C 371.893 171.488, 312.425 103.100, 311.827 103.053 C 311.457 103.024, 304.257 111.104, 295.827 121.009 M 244 245.500 L 244 292 195 292 L 146 292 146 247.500 L 146 203 118 203 L 90 203 90 272.665 L 90 342.331 208.666 341.665 C 273.932 341.299, 358.982 341, 397.666 341 L 468 341 468 270 L 468 199 435 199 L 402 199 402 242.500 L 402 286 355 286 L 308 286 308 242.500 L 308 199 276 199 L 244 199 244 245.500 M 252 270 L 252 333 356.500 333 L 461 333 461 270 L 461 207 435.500 207 L 410 207 410 250.500 L 410 294 355 294 L 300 294 300 250.500 L 300 207 276 207 L 252 207 252 270 M 226.032 393.065 C 216.449 395.574, 209.258 399.945, 202.016 407.662 C 192.599 417.696, 188 429.673, 188 444.161 C 188 459.224, 192.303 470.893, 201.536 480.865 C 219.744 500.532, 254.483 501.920, 275.411 483.817 C 297.771 464.476, 298.597 424.656, 277.053 404.710 C 263.874 392.508, 244.794 388.153, 226.032 393.065 M 32.500 392.502 C 31.950 392.692, 28.913 393.139, 25.750 393.495 L 20 394.144 20 444.473 L 20 494.803 31.623 495.529 C 56.967 497.112, 73.581 493.481, 82.363 484.438 C 87.278 479.377, 89.342 474.510, 89.807 466.882 C 90.463 456.136, 85.467 447.405, 75.949 442.662 L 70.946 440.169 75.184 437.322 C 81.728 432.927, 85.289 427.153, 85.798 420.111 C 86.333 412.720, 84.754 407.840, 80.193 402.792 C 75.786 397.914, 69.252 394.518, 61.526 393.089 C 56.176 392.100, 34.915 391.670, 32.500 392.502 M 120 392.496 C 119.175 392.706, 115.912 393.162, 112.750 393.510 L 107 394.144 107 444.572 L 107 495 114.500 495 L 122 495 122 472.849 L 122 450.698 131.791 451.294 C 142.502 451.947, 146.281 452.998, 149.845 456.317 C 153.381 459.609, 154.710 462.767, 158.434 476.725 C 163.742 496.615, 162.545 495, 171.975 495 C 176.389 495, 180 494.830, 180 494.622 C 180 494.414, 179.311 492.596, 178.470 490.582 C 177.628 488.568, 175.387 481.087, 173.488 473.957 C 169.414 458.652, 167.514 454.601, 162.134 449.740 L 158.124 446.117 162.488 443.560 C 178.179 434.364, 180.551 412.861, 167.203 400.803 C 160.263 394.533, 153.718 392.743, 136.500 392.408 C 128.250 392.247, 120.825 392.287, 120 392.496 M 489 392.496 C 488.175 392.706, 484.913 393.162, 481.750 393.510 L 476 394.144 476 444.572 L 476 495 483.500 495 L 491 495 491 472.849 L 491 450.698 500.791 451.294 C 511.502 451.947, 515.281 452.998, 518.845 456.317 C 522.381 459.609, 523.710 462.767, 527.434 476.725 C 532.742 496.615, 531.545 495, 540.975 495 C 545.389 495, 549 494.830, 549 494.622 C 549 494.414, 548.311 492.596, 547.470 490.582 C 546.628 488.568, 544.387 481.087, 542.488 473.957 C 538.414 458.652, 536.514 454.601, 531.134 449.740 L 527.124 446.117 531.488 443.560 C 547.179 434.364, 549.551 412.861, 536.203 400.803 C 529.263 394.533, 522.718 392.743, 505.500 392.408 C 497.250 392.247, 489.825 392.287, 489 392.496 M 38.500 393.661 C 36.300 393.840, 31.688 394.250, 28.250 394.573 L 22 395.159 22 443.973 C 22 487.562, 22.169 492.851, 23.582 493.393 C 24.452 493.727, 32.214 493.992, 40.832 493.983 C 63.535 493.957, 72.289 491.776, 80.335 484.140 C 86.060 478.706, 88.282 473.676, 88.352 465.994 C 88.458 454.518, 82.664 446.561, 70.839 441.937 L 66.841 440.374 72.642 436.937 C 80.753 432.131, 84.530 425.922, 84.419 417.578 C 84.324 410.444, 82.576 406.591, 77.352 402.004 C 71.938 397.251, 66.546 395.198, 56.425 394.039 C 47.651 393.034, 46.517 393.010, 38.500 393.661 M 127.500 393.659 C 125.300 393.836, 120.237 394.249, 116.250 394.576 L 109 395.171 109 444.085 L 109 493 115 493 L 121 493 121 471.500 L 121 450 130.250 450.006 C 141.105 450.012, 145.799 451.119, 150.013 454.664 C 154.355 458.318, 156.334 462.736, 160.021 477.008 C 161.796 483.879, 163.659 490.288, 164.160 491.250 C 164.875 492.625, 166.374 493, 171.152 493 C 176.473 493, 177.169 492.781, 176.720 491.250 C 176.437 490.288, 174.567 483.425, 172.563 476 C 170.559 468.575, 168.012 460.616, 166.902 458.314 C 165.014 454.398, 159.037 448.056, 155.892 446.631 C 154.977 446.216, 154.877 445.817, 155.600 445.467 C 163.036 441.861, 167.814 437.940, 170.744 433.038 C 173.605 428.250, 173.997 426.733, 173.978 420.544 C 173.964 415.906, 173.334 412.131, 172.135 409.491 C 169.978 404.742, 164.216 399.425, 158.476 396.886 C 154.544 395.147, 139.305 392.837, 134 393.176 C 132.625 393.264, 129.700 393.481, 127.500 393.659 M 225.912 394.445 C 202.939 400.782, 187.371 424.083, 189.487 448.962 C 191.855 476.798, 211.629 495, 239.500 495 C 269.879 495, 291 473.674, 291 443 C 291 418.862, 278.174 401.088, 256.068 394.595 C 249.521 392.672, 232.643 392.588, 225.912 394.445 M 308 444 L 308 495 315.500 495 L 323 495 323 475.716 L 323 456.432 328.272 451.225 L 333.545 446.018 351.885 470.509 L 370.224 495 379.112 495 C 384.001 495, 388 494.754, 388 494.454 C 388 494.153, 378.293 481.128, 366.428 465.508 C 354.563 449.889, 344.853 436.827, 344.849 436.481 C 344.846 436.135, 353.541 426.601, 364.171 415.294 C 374.802 403.987, 383.650 394.345, 383.833 393.868 C 384.017 393.390, 379.947 393, 374.790 393 L 365.414 393 344.457 416.395 L 323.500 439.790 323.232 416.395 L 322.964 393 315.482 393 L 308 393 308 444 M 396 444 L 396 495 428 495 L 460 495 460 488.500 L 460 482 435.500 482 L 411 482 411 465 L 411 448 433 448 L 455 448 455 441.500 L 455 435 433 435 L 411 435 411 420.500 L 411 406 434 406 L 457 406 457 399.500 L 457 393 426.500 393 L 396 393 396 444 M 496.500 393.659 C 494.300 393.836, 489.238 394.249, 485.250 394.576 L 478 395.171 478 444.085 L 478 493 484 493 L 490 493 490 471.500 L 490 450 499.250 450.006 C 510.105 450.012, 514.799 451.119, 519.013 454.664 C 523.355 458.318, 525.334 462.736, 529.021 477.008 C 530.796 483.879, 532.659 490.288, 533.160 491.250 C 533.875 492.625, 535.374 493, 540.152 493 C 545.473 493, 546.169 492.781, 545.720 491.250 C 545.437 490.288, 543.567 483.425, 541.563 476 C 539.559 468.575, 537.012 460.616, 535.902 458.314 C 534.014 454.398, 528.037 448.056, 524.892 446.631 C 523.977 446.216, 523.877 445.817, 524.600 445.467 C 532.036 441.861, 536.814 437.940, 539.744 433.038 C 542.605 428.250, 542.997 426.733, 542.978 420.544 C 542.964 415.906, 542.334 412.131, 541.135 409.491 C 538.978 404.742, 533.216 399.425, 527.476 396.886 C 523.544 395.147, 508.305 392.837, 503 393.176 C 501.625 393.264, 498.700 393.481, 496.500 393.659 M 310 443.500 L 310 493 316 493 L 322 493 322 474.219 L 322 455.437 327.841 449.657 L 333.683 443.876 352.076 468.438 L 370.468 493 377.857 493 C 383.611 493, 385.033 492.723, 384.289 491.750 C 363.523 464.606, 342.940 436.692, 343.182 436.003 C 343.357 435.505, 351.825 426.248, 362 415.433 C 372.175 404.617, 380.650 395.370, 380.833 394.884 C 381.017 394.398, 377.867 394.006, 373.833 394.013 L 366.500 394.025 347.500 415.229 C 337.050 426.891, 327.050 438.023, 325.277 439.966 L 322.054 443.500 322.027 418.750 L 322 394 316 394 L 310 394 310 443.500 M 398 443.500 L 398 493 428 493 L 458 493 458 488.500 L 458 484 434 484 L 410 484 410 465.500 L 410 447 431.500 447 L 453 447 453 442 L 453 437 431.500 437 L 410 437 410 420.500 L 410 404 433 404 L 456 404 456 399 L 456 394 427 394 L 398 394 398 443.500 M 41 402.999 L 34.500 403.500 34.226 420.250 L 33.952 437 42.427 437 C 57.327 437, 64.893 434.250, 69.726 427.078 C 73.369 421.673, 72.508 413.320, 67.790 408.283 C 63.841 404.068, 53.526 402.033, 41 402.999 M 233.500 402.525 C 232.950 402.727, 230.673 403.361, 228.441 403.933 C 207.354 409.341, 195.903 440.517, 206.481 463.718 C 214.848 482.069, 235.133 490.108, 254.702 482.828 C 268.515 477.689, 278 461.881, 278 444 C 278 419.669, 261.805 401.771, 240.068 402.079 C 237.006 402.122, 234.050 402.323, 233.500 402.525 M 122.250 403.613 C 121.315 404.027, 121 408.832, 121 422.684 L 121 441.201 133.750 440.820 C 148.603 440.377, 153.919 438.595, 158.569 432.499 C 160.835 429.528, 161.492 427.501, 161.770 422.630 C 162.217 414.811, 160.050 410.598, 153.475 406.500 C 148.860 403.624, 148.140 403.491, 136.080 403.280 C 129.161 403.158, 122.938 403.308, 122.250 403.613 M 234.863 404.088 C 215.625 406.218, 202.886 424.084, 204.265 447 C 204.939 458.190, 207.769 465.492, 214.131 472.452 C 220.946 479.910, 227.911 483.210, 238.077 483.798 C 247.193 484.326, 253.852 482.574, 260.740 477.835 C 272.296 469.884, 278.854 451.919, 276.019 435.983 C 272.111 414.017, 256.244 401.720, 234.863 404.088 M 491.250 403.613 C 490.315 404.027, 490 408.832, 490 422.684 L 490 441.201 502.750 440.820 C 517.603 440.377, 522.919 438.595, 527.569 432.499 C 529.835 429.528, 530.492 427.501, 530.770 422.630 C 531.217 414.811, 529.050 410.598, 522.475 406.500 C 517.860 403.624, 517.140 403.491, 505.080 403.280 C 498.161 403.158, 491.938 403.308, 491.250 403.613 M 36.750 404.628 C 35.185 405.092, 35 406.722, 35 420.073 L 35 435 44.750 434.994 C 50.112 434.991, 56.200 434.517, 58.277 433.940 C 66.244 431.727, 71.933 423.713, 70.481 416.747 C 68.675 408.086, 62.821 404.796, 48.500 404.392 C 43 404.237, 37.712 404.343, 36.750 404.628 M 124.750 404.655 L 122 405.133 122 422.566 L 122 440 129.750 439.994 C 147.067 439.981, 155.505 436.633, 159.185 428.315 C 162.923 419.864, 159.700 410.970, 151.453 406.977 C 147.691 405.156, 144.725 404.630, 137.106 404.430 C 131.823 404.291, 126.263 404.393, 124.750 404.655 M 493.750 404.655 L 491 405.133 491 422.566 L 491 440 498.750 439.994 C 516.067 439.981, 524.505 436.633, 528.185 428.315 C 531.923 419.864, 528.700 410.970, 520.453 406.977 C 516.691 405.156, 513.725 404.630, 506.106 404.430 C 500.823 404.291, 495.262 404.393, 493.750 404.655 M 34.228 465.250 L 34.500 484.500 44.444 484.789 C 60.037 485.241, 69.827 481.468, 73.737 473.500 C 78.823 463.135, 72.941 451.139, 61.041 447.605 C 57.532 446.563, 51.836 446, 44.797 446 L 33.957 446 34.228 465.250 M 35 464.939 L 35 482.877 39.597 483.567 C 44.621 484.320, 54.418 483.564, 60.118 481.983 C 68.567 479.638, 73.995 473.278, 73.998 465.718 C 74.003 453.470, 63.561 447, 43.790 447 L 35 447 35 464.939" stroke="none" fill="#0c7c7c" fill-rule="evenodd"/></svg>