<svg xmlns="http://www.w3.org/2000/svg" width="3686" height="1071" viewBox="0 0 3686 1071" version="1.1"><path d="M 688.500 118.629 C 643.818 123.133, 606.789 134.295, 573.766 153.215 C 525.410 180.918, 487.992 222.067, 458.021 280.500 C 445.580 304.755, 441.413 318.990, 442.223 334.468 C 442.590 341.496, 443.310 344.996, 445.263 349.262 C 450.078 359.780, 460.205 368.459, 473.803 373.721 C 479.120 375.779, 482.358 376.332, 489.520 376.406 C 497.842 376.493, 499.071 376.239, 505.402 373.122 C 518.116 366.864, 528.369 353.917, 538.108 331.822 C 554.787 293.979, 578.545 265.462, 611.500 243.726 C 667.671 206.677, 741.011 199.686, 801.676 225.598 C 821.329 233.992, 842.312 247.020, 860.110 261.877 C 897.708 293.264, 920.275 336.152, 926.998 389 C 927.592 393.675, 928.488 409.200, 928.988 423.500 C 929.535 439.123, 930.449 451.728, 931.279 455.083 C 934.420 467.783, 940.931 476.212, 951.341 481.057 C 959.718 484.955, 966.480 486.575, 986.877 489.569 C 1024.502 495.093, 1051.390 504.902, 1079.371 523.313 C 1154.222 572.565, 1190.275 658.970, 1170.828 742.500 C 1152.642 820.615, 1090.660 878.683, 1008.500 894.578 C 994.348 897.315, 887.199 898.177, 628 897.636 C 418.192 897.199, 386.100 896.938, 376.526 895.588 C 359.616 893.203, 350.634 891.170, 336.500 886.529 C 306.902 876.809, 282.948 862.074, 260.954 840.057 C 238.249 817.329, 222.589 791.206, 211.460 757.500 C 198.019 716.787, 198.042 676.235, 211.531 635.244 C 235.884 561.236, 302.758 505.494, 379.305 495.398 C 395.556 493.255, 422.900 493.946, 438.650 496.898 C 534.337 514.835, 595.052 583.070, 610.022 689.500 C 613.533 714.458, 616.817 723.612, 625.165 731.702 C 633.365 739.650, 646.920 743.149, 661.769 741.151 C 693.150 736.927, 703.942 718.550, 701.048 674.266 C 698.823 640.216, 693.174 613.645, 682.281 586 C 656.493 520.555, 604.369 463.868, 540.030 431.297 C 500.541 411.306, 458.632 400.671, 414 399.315 C 309.945 396.152, 214.809 444.547, 158.665 529.202 C 139.601 557.948, 125.661 589.438, 116.481 624.500 C 109.227 652.202, 106.408 677.561, 107.310 707 C 108.695 752.229, 118.819 791.370, 139.710 832.266 C 180.373 911.865, 255.998 969.669, 342.260 987.083 C 375.233 993.740, 353.663 993.365, 689.500 993.117 C 1018.697 992.875, 1006.386 993.075, 1034.317 987.517 C 1077.193 978.986, 1115.169 961.949, 1151 935.172 C 1164.749 924.897, 1190.524 899.589, 1201.796 885.298 C 1238.382 838.908, 1261.560 782.322, 1269.436 720.158 C 1271.237 705.948, 1271.488 678.427, 1269.948 664.211 C 1264.501 613.950, 1242.795 561.203, 1209.369 517 C 1179.167 477.061, 1143.379 447.025, 1101.500 426.471 C 1083.856 417.812, 1074.738 414.295, 1054.634 408.394 C 1039.222 403.871, 1032.401 400.353, 1026.656 393.963 C 1020.713 387.352, 1018.480 380.235, 1017.568 365 C 1015.734 334.355, 1008.786 309.907, 993.410 280 C 967.215 229.048, 929.446 187.238, 885.419 160.452 C 850.853 139.423, 812.456 126.440, 767 120.412 C 755.087 118.832, 699.099 117.561, 688.500 118.629 M 1413 307.451 L 1413 388 1419.500 388 L 1426 388 1426 357.500 L 1426 327 1450.790 327 C 1478.210 327, 1482.858 326.325, 1493.129 320.850 C 1496.315 319.152, 1501.333 315.229, 1504.281 312.132 C 1515.118 300.744, 1518.483 291.249, 1517.771 274.068 C 1517.451 266.344, 1516.736 261.968, 1515.116 257.808 C 1510.460 245.850, 1499.372 234.716, 1487.243 229.820 C 1481.686 227.577, 1480.392 227.492, 1447.250 227.202 L 1413 226.902 1413 307.451 M 2465.948 262.250 C 2465.898 295.592, 2465.804 297.365, 2464.216 295 C 2463.292 293.625, 2459.855 289.673, 2456.578 286.217 C 2445.576 274.615, 2430.159 269.107, 2412.003 270.290 C 2393.406 271.502, 2377.023 281.086, 2366.670 296.809 C 2359.640 307.484, 2357.773 313.564, 2357.236 327.533 C 2356.705 341.344, 2358.030 348.235, 2363.272 358.928 C 2367.019 366.569, 2377.898 378.176, 2385.380 382.514 C 2409.052 396.237, 2439.352 392.947, 2456.578 374.783 C 2459.855 371.327, 2463.292 367.375, 2464.216 366 C 2465.834 363.591, 2465.897 363.946, 2465.948 375.750 L 2466 388 2472 388 L 2478 388 2478 307.500 L 2478 227 2472 227 L 2466 227 2465.948 262.250 M 2635 307.500 L 2635 388 2641.500 388 L 2648 388 2648.052 376.250 C 2648.103 365.013, 2648.176 364.609, 2649.740 367 C 2652.875 371.794, 2663.538 381.520, 2668.675 384.272 C 2675.766 388.069, 2687.892 391.003, 2696.410 390.983 C 2712.550 390.943, 2725.775 385.761, 2737.347 374.942 C 2750.702 362.456, 2756.417 349.121, 2756.392 330.500 C 2756.368 312.230, 2751.651 300.687, 2739 287.946 C 2726.902 275.762, 2713.355 270.059, 2696.410 270.017 C 2687.892 269.997, 2675.766 272.931, 2668.675 276.728 C 2663.538 279.480, 2652.875 289.206, 2649.740 294 C 2648.210 296.340, 2648.102 294.276, 2648.052 261.750 L 2648 227 2641.500 227 L 2635 227 2635 307.500 M 1426 276.925 L 1426 315 1446.750 314.992 C 1458.162 314.988, 1470.352 314.522, 1473.837 313.957 C 1486.543 311.895, 1495.795 305.224, 1501.213 294.218 C 1504.298 287.953, 1504.500 286.894, 1504.500 277.021 C 1504.500 267.594, 1504.209 265.876, 1501.700 260.500 C 1498.056 252.690, 1491.257 245.858, 1483.610 242.324 L 1477.500 239.500 1451.750 239.175 L 1426 238.851 1426 276.925 M 1604.202 272.022 C 1593.364 274.861, 1585.523 279.460, 1576.972 287.990 C 1564.911 300.023, 1559.611 313, 1559.611 330.500 C 1559.611 341.439, 1561.112 348.162, 1565.738 357.939 C 1570.108 367.176, 1581.418 378.894, 1590.686 383.785 C 1607.975 392.908, 1630.034 393.316, 1647.599 384.836 C 1657.217 380.193, 1670.520 367.042, 1674.834 357.912 C 1683.153 340.307, 1682.929 317.839, 1674.272 301.675 C 1669.853 293.426, 1656.828 280.910, 1648.115 276.541 C 1634.913 269.922, 1618.618 268.245, 1604.202 272.022 M 1972.202 271.956 C 1952.316 277.346, 1937.578 291.208, 1931.391 310.343 C 1929.140 317.303, 1928.753 320.262, 1928.753 330.500 C 1928.753 340.738, 1929.140 343.697, 1931.391 350.657 C 1939.385 375.381, 1961.659 390.965, 1989 390.965 C 2006.736 390.965, 2022.415 384.603, 2033.415 372.943 C 2037.100 369.037, 2039.966 365.399, 2039.786 364.857 C 2039.605 364.316, 2037.177 362.556, 2034.390 360.947 L 2029.323 358.022 2026.157 362.432 C 2022.330 367.760, 2012.684 374.405, 2005.649 376.559 C 1998.534 378.738, 1986.663 379.441, 1979.537 378.106 C 1961.201 374.672, 1946.782 361.023, 1942.614 343.157 L 1941.177 337 1993.740 337 L 2046.302 337 2045.678 327.508 C 2044.600 311.101, 2039.403 298.780, 2028.760 287.403 C 2017.530 275.397, 2007.767 271.058, 1990.500 270.398 C 1981.698 270.062, 1978.042 270.373, 1972.202 271.956 M 2234.202 271.956 C 2214.316 277.346, 2199.578 291.208, 2193.391 310.343 C 2191.140 317.303, 2190.753 320.262, 2190.753 330.500 C 2190.753 340.738, 2191.140 343.697, 2193.391 350.657 C 2201.385 375.381, 2223.659 390.965, 2251 390.965 C 2268.736 390.965, 2284.415 384.603, 2295.415 372.943 C 2299.100 369.037, 2301.966 365.399, 2301.786 364.857 C 2301.605 364.316, 2299.177 362.556, 2296.390 360.947 L 2291.323 358.022 2288.157 362.432 C 2284.330 367.760, 2274.684 374.405, 2267.649 376.559 C 2260.534 378.738, 2248.663 379.441, 2241.537 378.106 C 2223.201 374.672, 2208.782 361.023, 2204.614 343.157 L 2203.177 337 2255.740 337 L 2308.302 337 2307.678 327.508 C 2306.600 311.101, 2301.403 298.780, 2290.760 287.403 C 2279.530 275.397, 2269.767 271.058, 2252.500 270.398 C 2243.698 270.062, 2240.042 270.373, 2234.202 271.956 M 2139.230 272.550 C 2129.596 275.144, 2122.897 279.962, 2117.825 287.946 L 2115 292.392 2115 282.696 L 2115 273 2108.500 273 L 2102 273 2102 330.500 L 2102 388 2108.446 388 L 2114.892 388 2115.196 349.250 C 2115.494 311.271, 2115.546 310.400, 2117.797 305.500 C 2121.392 297.673, 2124.775 293.394, 2130.349 289.621 C 2135.870 285.885, 2144.293 283, 2149.682 283 L 2153 283 2153 277 L 2153 271 2148.750 271.066 C 2146.412 271.102, 2142.129 271.770, 2139.230 272.550 M 1723.361 274.499 C 1723.677 275.323, 1731.917 301.216, 1741.672 332.038 L 1759.408 388.079 1766.394 387.790 L 1773.380 387.500 1788.514 341 C 1796.838 315.425, 1803.854 293.896, 1804.105 293.157 C 1804.356 292.419, 1811.584 313.344, 1820.167 339.657 L 1835.772 387.500 1842.886 387.794 C 1846.799 387.955, 1850 387.870, 1850 387.604 C 1850 387.249, 1874.764 308.692, 1885.433 275.202 C 1886.153 272.941, 1886.057 272.910, 1879.369 273.202 L 1872.572 273.500 1859.873 315 C 1852.889 337.825, 1846.179 359.826, 1844.964 363.892 L 1842.754 371.284 1827.016 322.392 L 1811.278 273.500 1804.546 273.500 L 1797.814 273.500 1782.394 321.500 C 1773.912 347.900, 1766.847 369.896, 1766.693 370.381 C 1766.539 370.865, 1759.682 349.161, 1751.456 322.149 L 1736.500 273.036 1729.643 273.018 C 1723.957 273.003, 1722.884 273.256, 1723.361 274.499 M 2795.460 274.874 C 2795.804 275.958, 2807.541 302.165, 2821.543 333.114 C 2835.544 364.062, 2847 389.827, 2847 390.369 C 2847 392.904, 2838.735 408.019, 2835.077 412.175 C 2830.324 417.575, 2822.712 421.704, 2815.827 422.617 L 2811 423.258 2811 429.244 L 2811 435.230 2816.732 434.514 C 2825.155 433.462, 2831.839 430.615, 2838.467 425.256 C 2850.013 415.922, 2851.584 412.743, 2879.626 342 C 2893.688 306.525, 2905.588 276.488, 2906.072 275.250 C 2906.931 273.050, 2906.797 273, 2900.118 273 L 2893.286 273 2874.062 322.250 C 2863.489 349.337, 2854.509 371.843, 2854.106 372.263 C 2853.703 372.683, 2843.235 350.633, 2830.843 323.263 L 2808.311 273.500 2801.573 273.202 C 2795.262 272.924, 2794.875 273.030, 2795.460 274.874 M 1608.112 283.581 C 1589.680 288.538, 1575.637 304.205, 1572.717 323.072 C 1568.909 347.675, 1584.386 371.177, 1608.542 377.469 C 1630.595 383.213, 1653.773 372.249, 1663.750 351.354 C 1667.488 343.524, 1667.500 343.459, 1667.500 330.500 C 1667.500 317.541, 1667.488 317.476, 1663.750 309.646 C 1653.746 288.694, 1630.169 277.649, 1608.112 283.581 M 1976.459 283.395 C 1963.561 286.528, 1952.247 295.589, 1946.539 307.355 C 1944.633 311.285, 1942.668 316.863, 1942.173 319.750 L 1941.273 325 1987.112 325 L 2032.950 325 2032.372 321.750 C 2029.549 305.877, 2022.392 295.001, 2009.985 287.732 C 2000.928 282.425, 1987.566 280.696, 1976.459 283.395 M 2238.459 283.395 C 2225.561 286.528, 2214.247 295.589, 2208.539 307.355 C 2206.633 311.285, 2204.668 316.863, 2204.173 319.750 L 2203.273 325 2249.112 325 L 2294.950 325 2294.372 321.750 C 2291.549 305.877, 2284.392 295.001, 2271.985 287.732 C 2262.928 282.425, 2249.566 280.696, 2238.459 283.395 M 2405.112 283.581 C 2381.398 289.958, 2366.171 313.129, 2369.682 337.497 C 2374.342 369.845, 2409.361 388.432, 2438.500 374.023 C 2455.596 365.569, 2465.238 349.874, 2465.238 330.500 C 2465.238 319.685, 2462.991 311.839, 2457.545 303.634 C 2446.233 286.592, 2424.633 278.331, 2405.112 283.581 M 2683.760 283.558 C 2667.826 287.420, 2654.804 299.959, 2649.875 316.185 C 2647.098 325.329, 2647.573 339.625, 2650.943 348.324 C 2655.787 360.827, 2668.353 372.910, 2680.263 376.516 C 2692.457 380.208, 2706.052 379.382, 2716.833 374.293 C 2723.548 371.124, 2733.520 361.836, 2737.708 354.851 C 2741.793 348.036, 2744 339.495, 2744 330.500 C 2744 316.143, 2739.154 305.166, 2728.333 295.011 C 2716.147 283.575, 2700.392 279.527, 2683.760 283.558 M 396.024 555.545 C 384.714 558.704, 376.044 566.259, 371.885 576.581 L 369.500 582.500 369.200 695 C 368.982 776.548, 369.215 809.151, 370.045 813.500 C 372.590 826.816, 382.070 838.638, 393.691 842.986 C 417.240 851.796, 441.674 844.581, 450.730 826.142 L 453.500 820.500 453.769 724.384 C 453.918 671.521, 453.672 617.521, 453.223 604.384 C 452.447 581.659, 452.281 580.226, 449.806 574.852 C 446.373 567.399, 440.316 561.511, 432.151 557.689 C 426.037 554.827, 424.532 554.553, 413.500 554.296 C 405.033 554.098, 399.888 554.466, 396.024 555.545 M 1311.907 587.327 C 1309.483 588.606, 1306.150 591.570, 1304.500 593.913 C 1301.827 597.708, 1301.500 598.971, 1301.500 605.500 C 1301.500 612.029, 1301.827 613.292, 1304.500 617.087 C 1306.150 619.430, 1309.483 622.394, 1311.907 623.673 C 1316.307 625.996, 1316.379 626, 1356.157 626 L 1396 626 1396.022 725.250 C 1396.043 819.722, 1396.133 824.693, 1397.896 828.500 C 1404.187 842.089, 1420.912 845.140, 1431.434 834.619 C 1434.334 831.719, 1436.032 828.929, 1436.832 825.751 C 1437.683 822.374, 1438 794.613, 1438 723.557 L 1438 626 1477.288 626 C 1516.060 626, 1516.634 625.970, 1520.980 623.750 C 1523.402 622.513, 1526.760 619.771, 1528.442 617.657 C 1531.299 614.067, 1531.500 613.269, 1531.500 605.500 C 1531.500 597.699, 1531.309 596.948, 1528.405 593.343 C 1526.703 591.229, 1523.553 588.495, 1521.405 587.266 L 1517.500 585.033 1416.907 585.016 L 1316.315 585 1311.907 587.327 M 2091.666 587.074 C 2084.045 589.695, 2079.370 592.721, 2073.105 599.085 C 2066.982 605.306, 2062.336 614.286, 2060.993 622.500 C 2060.405 626.093, 2060.016 662.593, 2060.023 713.500 C 2060.036 806.086, 2060.078 806.861, 2065.673 817.141 C 2071.414 827.688, 2082.633 836.367, 2094.535 839.467 C 2103.254 841.738, 2210.368 841.739, 2221.792 839.468 C 2247.636 834.331, 2270.680 811.252, 2275.518 785.662 C 2280.210 760.846, 2273.518 737.809, 2255.783 717.721 L 2249.798 710.943 2253.683 706.721 C 2267.392 691.828, 2273.373 675.769, 2273.319 654 C 2273.292 643.293, 2272.913 640.353, 2270.679 633.500 C 2263.242 610.689, 2244.334 592.840, 2221.391 586.972 C 2214.143 585.118, 2210.195 585.002, 2155.590 585.033 C 2100.088 585.065, 2097.240 585.156, 2091.666 587.074 M 2742.500 586.573 C 2728.650 593.776, 2726.981 612.606, 2739.323 622.426 C 2742.652 625.075, 2744.075 625.508, 2750.323 625.773 C 2756.341 626.028, 2758.139 625.706, 2761.458 623.780 C 2775.698 615.517, 2775.385 594.339, 2760.914 586.956 C 2756.179 584.541, 2746.783 584.345, 2742.500 586.573 M 2103.240 627.160 C 2102.305 628.095, 2102 636.233, 2102 660.235 L 2102 692.070 2152.773 691.785 L 2203.546 691.500 2210.128 688.259 C 2222.770 682.033, 2230.911 670.064, 2231.787 656.416 C 2232.181 650.281, 2231.886 648.435, 2229.784 643.861 C 2226.453 636.615, 2223.173 632.966, 2216.833 629.454 L 2211.500 626.500 2157.990 626.210 C 2116.422 625.984, 2104.204 626.196, 2103.240 627.160 M 1625.460 635.377 C 1592.997 640.708, 1564.529 661.842, 1549.596 691.696 C 1535.596 719.683, 1535.633 755.373, 1549.691 783.500 C 1560.252 804.632, 1581.114 824.357, 1602.110 833.062 C 1616.003 838.822, 1624.722 840.408, 1642.500 840.408 C 1661.625 840.408, 1671.072 838.462, 1685.791 831.489 C 1697.497 825.944, 1706.133 819.835, 1715.484 810.484 C 1729.043 796.925, 1738.535 780.436, 1743.107 762.500 C 1746.447 749.393, 1746.459 725.426, 1743.130 712.500 C 1733.322 674.410, 1702.494 644.571, 1664.500 636.394 C 1654.671 634.278, 1635.232 633.772, 1625.460 635.377 M 1856.500 634.656 C 1836.062 637.083, 1818.636 644.229, 1803.365 656.448 C 1781.461 673.973, 1768.468 697.086, 1765.109 724.500 C 1763.622 736.630, 1763.578 904.941, 1765.060 910.277 C 1767.314 918.395, 1776.203 924.935, 1785.038 924.978 C 1793.848 925.021, 1803.096 917.809, 1805.055 909.369 C 1805.548 907.241, 1805.963 886.712, 1805.976 863.750 C 1805.989 840.788, 1806.273 822, 1806.606 822 C 1806.939 822, 1808.585 823.156, 1810.263 824.568 C 1814.791 828.378, 1827.899 834.688, 1835.878 836.899 C 1859.109 843.337, 1887.496 841.793, 1908.243 832.965 C 1931.533 823.054, 1955.110 798.872, 1964.039 775.737 C 1969.467 761.673, 1970.402 756.053, 1970.402 737.500 C 1970.402 718.879, 1969.474 713.352, 1963.943 699.010 C 1955.421 676.910, 1931.763 652.114, 1910.507 643.003 C 1893.885 635.878, 1873.171 632.676, 1856.500 634.656 M 2309.500 635.207 C 2304.746 636.868, 2300.149 640.787, 2297.991 645.018 C 2296.080 648.764, 2296.001 650.958, 2296.013 699.710 C 2296.028 755.555, 2296.414 760.073, 2302.501 775.513 C 2311.222 797.631, 2331.423 819.633, 2353 830.515 C 2370.360 839.269, 2393.279 842.848, 2413.500 839.961 C 2436.728 836.645, 2454.284 827.755, 2471.595 810.543 C 2485.434 796.783, 2494.369 781.884, 2499.205 764.500 C 2501.353 756.783, 2501.444 754.643, 2501.782 704 C 2502.012 669.490, 2501.775 650.288, 2501.090 647.965 C 2499.101 641.216, 2489.565 634.066, 2482.500 634.028 C 2474.263 633.983, 2466.231 639.081, 2462.865 646.491 C 2461.187 650.185, 2461.042 654.205, 2461.022 697.590 C 2461.002 741.169, 2460.853 745.256, 2459.025 752.404 C 2456.123 763.750, 2451.680 771.321, 2442.504 780.557 C 2429.581 793.565, 2416.752 798.955, 2398.644 798.985 C 2381.100 799.015, 2368.843 793.855, 2355.951 781.015 C 2346.229 771.332, 2341.988 764.184, 2338.975 752.404 C 2337.147 745.256, 2336.998 741.169, 2336.978 697.590 C 2336.958 654.205, 2336.813 650.185, 2335.135 646.491 C 2330.746 636.830, 2319.286 631.786, 2309.500 635.207 M 2599.500 634.630 C 2581.227 636.623, 2563.966 641.845, 2551.649 649.107 C 2542.530 654.482, 2531.353 665.741, 2527.758 673.174 C 2520.051 689.104, 2520.051 708.952, 2527.756 724.791 C 2531.137 731.741, 2539.527 740.423, 2547.510 745.232 C 2561.403 753.603, 2577.742 756.651, 2615.965 758.004 C 2649.160 759.179, 2656.577 760.673, 2661.295 767.136 C 2663.762 770.514, 2664.631 778.062, 2663.005 781.988 C 2660.365 788.362, 2650.405 794.611, 2637.154 798.209 C 2625.896 801.265, 2602.950 801.266, 2590.705 798.211 C 2580.415 795.643, 2569.539 790.577, 2562.500 785.073 C 2551.456 776.438, 2550.339 775.840, 2544.318 775.339 C 2537.236 774.750, 2531.263 777.429, 2526.603 783.287 C 2524.139 786.384, 2523.517 788.222, 2523.189 793.370 C 2522.560 803.249, 2525.821 808.179, 2539.609 818.193 C 2557.808 831.412, 2581.842 839.438, 2607 840.698 C 2653.938 843.050, 2694.455 822.257, 2702.610 791.632 C 2704.261 785.431, 2704.417 769.098, 2702.895 761.799 C 2699.865 747.269, 2689.690 734.361, 2676 727.680 C 2662.371 721.030, 2651.633 719.270, 2617 718.014 C 2577.588 716.584, 2566.875 713.737, 2563.067 703.685 C 2558.430 691.447, 2569.266 681.365, 2592.420 676.375 C 2596.636 675.467, 2605.163 674.802, 2613.500 674.732 C 2625.125 674.634, 2628.942 674.998, 2636 676.876 C 2647.290 679.881, 2656.995 684.681, 2665.388 691.412 C 2673.406 697.842, 2677.391 699.409, 2684.086 698.766 C 2695.707 697.649, 2704.070 685.401, 2700.999 673.995 C 2697.180 659.813, 2667.153 641.944, 2638 636.504 C 2629.461 634.911, 2606.965 633.816, 2599.500 634.630 M 2744.500 635.207 C 2739.746 636.868, 2735.149 640.787, 2732.991 645.018 C 2731.047 648.828, 2731 651.031, 2731 737.764 L 2731 826.608 2733.879 831.148 C 2741.305 842.858, 2757.119 844.252, 2766.370 834.012 C 2768.293 831.883, 2770.344 828.422, 2770.928 826.321 C 2771.639 823.761, 2771.983 794.110, 2771.972 736.500 C 2771.957 655.471, 2771.851 650.268, 2770.135 646.491 C 2765.746 636.830, 2754.286 631.786, 2744.500 635.207 M 2892.250 634.995 C 2870.973 638.004, 2852.369 647.056, 2836.522 662.109 C 2826.341 671.780, 2819.922 680.434, 2813.982 692.500 C 2804.765 711.220, 2804.681 711.899, 2804.251 771 C 2804.045 799.325, 2804.155 823.989, 2804.495 825.810 C 2805.826 832.940, 2816.251 840.931, 2824.282 840.978 C 2831.045 841.017, 2839.626 835.847, 2843.332 829.500 C 2844.161 828.081, 2844.658 812.689, 2845.044 776.500 C 2845.566 727.525, 2845.674 725.242, 2847.767 719 C 2851.114 709.020, 2856.717 700.488, 2865.118 692.577 C 2873.451 684.732, 2881.781 680.039, 2892.046 677.410 C 2900.995 675.117, 2919.062 675.905, 2927.723 678.966 C 2944.700 684.966, 2959.809 700.311, 2966.157 718 C 2968.456 724.406, 2968.497 725.234, 2968.995 775.500 L 2969.500 826.500 2971.805 830.208 C 2980.711 844.530, 2999.354 844.459, 3007.813 830.070 L 3010.500 825.500 3010.800 782.010 C 3011.187 725.929, 3010.121 714.961, 3002.533 696.946 C 2993.306 675.043, 2972.325 653.489, 2950.346 643.334 C 2934.447 635.988, 2910.018 632.482, 2892.250 634.995 M 3117.250 634.995 C 3095.944 638.008, 3077.404 647.038, 3061.432 662.181 C 3051.127 671.950, 3044.821 680.445, 3038.926 692.500 C 3031.044 708.616, 3029.663 715.191, 3029.575 737 C 3029.489 758.135, 3030.937 765.660, 3037.978 780.692 C 3045.486 796.718, 3056.578 810.173, 3071.352 821.176 C 3096.689 840.044, 3131.548 845.812, 3166.446 836.911 C 3181.661 833.031, 3203.741 822.145, 3210.197 815.342 C 3217.992 807.128, 3217.656 794.815, 3209.414 786.657 C 3205.076 782.364, 3201.080 780.690, 3194.959 780.604 C 3189.929 780.532, 3188.546 781.050, 3179.959 786.220 C 3174.681 789.399, 3166.301 793.325, 3161 795.104 C 3152.912 797.819, 3149.624 798.365, 3138.875 798.775 C 3123.724 799.353, 3114.660 797.676, 3103.746 792.277 C 3094.002 787.456, 3080.658 774.218, 3076.216 764.964 L 3073.114 758.500 3147.307 758 C 3228.133 757.455, 3224.267 757.744, 3229.633 751.845 C 3234.616 746.367, 3235.288 743.497, 3234.735 730.057 C 3233.662 704.007, 3223.385 682.098, 3203.185 662.799 C 3183.647 644.132, 3162.884 635.392, 3136 634.517 C 3129.125 634.294, 3120.687 634.509, 3117.250 634.995 M 3321.174 635.039 C 3295.729 638.243, 3274.872 647.672, 3261.723 661.914 C 3251.695 672.777, 3247.802 683.152, 3247.887 698.790 C 3247.976 715.170, 3252.535 727.183, 3262.301 736.776 C 3277.424 751.631, 3294.831 756.311, 3341.272 758.006 C 3367.860 758.977, 3378.953 760.428, 3383.734 763.562 C 3385.083 764.445, 3387.095 767.222, 3388.205 769.732 C 3392.370 779.145, 3388.372 786.960, 3376.262 793.080 C 3365.400 798.569, 3355.995 800.451, 3339.500 800.437 C 3328.340 800.428, 3323.674 799.969, 3316.500 798.175 C 3305.145 795.335, 3293.301 789.586, 3285.236 783.001 C 3277.916 777.024, 3273.580 775, 3268.097 775 C 3262.779 775, 3259.170 776.482, 3255.165 780.311 C 3250.289 784.972, 3249 788.109, 3249 795.311 C 3249 804.703, 3252.015 808.734, 3266.757 819.051 C 3298.835 841.499, 3345.290 847.232, 3383.744 833.488 C 3396.540 828.915, 3406.104 823.052, 3414.592 814.579 C 3426.429 802.764, 3430.798 790.513, 3429.708 772.189 C 3428.296 748.454, 3416.909 732.891, 3394.902 724.618 C 3384.849 720.840, 3369.744 718.947, 3341.947 717.984 C 3299.524 716.514, 3289.198 712.888, 3288.202 699.112 C 3287.795 693.482, 3287.927 693.086, 3291.575 689.048 C 3298.657 681.209, 3311.624 676.536, 3330.848 674.893 C 3354.415 672.879, 3375.516 678.615, 3391.050 691.260 C 3398.534 697.351, 3402.095 699.003, 3407.700 698.984 C 3413.537 698.964, 3419.068 696.042, 3423.360 690.713 C 3427.252 685.880, 3428.251 676.438, 3425.486 670.612 C 3421.202 661.584, 3401.884 648.338, 3383.234 641.641 C 3366.528 635.641, 3339.348 632.750, 3321.174 635.039 M 3518 635.046 C 3493.002 638.146, 3471.853 647.750, 3458.671 661.989 C 3448.698 672.760, 3445 682.630, 3445 698.471 C 3445 715.253, 3449.407 727.057, 3459.301 736.776 C 3474.424 751.631, 3491.831 756.311, 3538.272 758.006 C 3576.921 759.418, 3582.920 761.132, 3586.031 771.654 C 3588.727 780.772, 3584.362 787.860, 3572.628 793.419 C 3561.170 798.848, 3553.521 800.346, 3537 800.396 C 3525.167 800.432, 3520.845 800.025, 3513.500 798.182 C 3502.135 795.330, 3490.293 789.580, 3482.236 783.001 C 3478.790 780.188, 3474.417 777.237, 3472.518 776.443 C 3468.443 774.741, 3462.259 774.574, 3458.315 776.061 C 3454.899 777.349, 3449.346 782.515, 3447.415 786.200 C 3445.591 789.681, 3445.590 800.306, 3447.413 803.831 C 3450.959 810.689, 3465.523 821.512, 3481.370 829.066 C 3525.099 849.910, 3586.043 842.483, 3613.355 812.983 C 3622.700 802.889, 3627.017 791.239, 3626.983 776.201 C 3626.912 744.875, 3609.243 725.953, 3575 720.532 C 3569.143 719.604, 3553.201 718.478, 3538.947 717.984 C 3496.524 716.514, 3486.198 712.888, 3485.202 699.112 C 3484.795 693.482, 3484.927 693.086, 3488.575 689.048 C 3495.657 681.209, 3508.624 676.536, 3527.848 674.893 C 3551.415 672.879, 3572.516 678.615, 3588.050 691.260 C 3595.534 697.351, 3599.095 699.003, 3604.700 698.984 C 3614.091 698.951, 3622.895 691.153, 3623.765 682.096 C 3624.028 679.355, 3623.934 675.461, 3623.555 673.442 C 3621.834 664.268, 3601.330 649.216, 3580.234 641.641 C 3563.484 635.626, 3536.437 632.760, 3518 635.046 M 1625.500 677.870 C 1605.475 683.634, 1587.741 701.667, 1582.504 721.592 C 1580.437 729.454, 1580.453 745.093, 1582.536 753.165 C 1587.954 774.162, 1606.088 792.052, 1627.460 797.485 C 1635.154 799.441, 1649.943 799.425, 1657.540 797.453 C 1679.304 791.803, 1696.905 774.387, 1702.544 752.920 C 1704.717 744.645, 1704.752 730.415, 1702.618 722.124 C 1697.291 701.427, 1678.853 682.873, 1658.356 677.585 C 1650.078 675.450, 1633.405 675.594, 1625.500 677.870 M 1850.500 677.870 C 1829.777 683.835, 1812.747 701.656, 1807.393 722.981 C 1805.128 732.002, 1805.923 749.077, 1809.017 757.858 C 1811.719 765.529, 1819.452 777.369, 1825.081 782.454 C 1831.273 788.048, 1840.320 793.577, 1847.277 796.019 C 1855.095 798.762, 1871.351 799.769, 1880.246 798.061 C 1901.594 793.961, 1920.952 775.752, 1927.618 753.500 C 1930.428 744.121, 1930.004 728.715, 1926.652 718.422 C 1920.422 699.289, 1902.703 682.577, 1883.356 677.585 C 1875.078 675.450, 1858.405 675.594, 1850.500 677.870 M 3116 677.583 C 3104.099 680.723, 3093.264 687.796, 3084.050 698.443 C 3079.363 703.858, 3075.417 710.362, 3074.460 714.250 L 3073.783 717 3132.405 717 L 3191.027 717 3189.465 713.262 C 3186.615 706.442, 3181.988 700.254, 3174.109 692.726 C 3165.713 684.705, 3157.688 680.112, 3147.540 677.522 C 3140.036 675.606, 3123.371 675.638, 3116 677.583 M 2102 765.939 C 2102 796.962, 2102.061 797.962, 2104.011 799.006 C 2105.394 799.746, 2122.785 799.991, 2159.761 799.791 L 2213.500 799.500 2219.224 796.689 C 2230.236 791.282, 2235.531 781.772, 2234.824 768.674 C 2234.099 755.258, 2226.440 743.804, 2214.145 737.750 L 2207.545 734.500 2154.773 734.224 L 2102 733.949 2102 765.939" stroke="none" fill="#fffcfc" fill-rule="evenodd"/><path d="" stroke="none" fill="#fcfcfc" fill-rule="evenodd"/></svg>